<svg clip-rule="evenodd" fill-rule="evenodd" stroke-linejoin="round" stroke-miterlimit="2" viewBox="0 0 787 678" xmlns="http://www.w3.org/2000/svg"><g fill="#11d493" fill-rule="nonzero"><path d="m200.582 148.712 18.292-2.904v39.779l-2.25 35.423c3.726 1.451 8.759 2.601 15.098 3.448 6.34.847 10.162 1.367 11.469 1.56l-4.137 16.115c-5.178-.678-9.364-1.307-12.558-1.887l-8.493-1.597c-8.759-1.694-14.566-3.218-17.421-4.573z" transform="matrix(1.3316 .491101 -.491101 1.3316 -26.0414 -296.53)"/><path d="m272.154 197.201c0 11.662.605 21.776 1.815 30.342l14.3-.726c2.613-10.356 3.919-20.47 3.919-30.342 0-3.968-.266-7.501-.798-10.598-2.904-1.452-13.163-2.178-30.778-2.178h-3.702c-1.016 0-2.129.049-3.339.145l3.122-16.84c.822-.049 1.584-.109 2.286-.182.702-.072 1.416-.108 2.141-.108l2.178-.146h6.098c9.581 0 20.082 1.283 31.503 3.848 3.629.919 5.855 2.54 6.678 4.863 1.258 3.581 1.887 9.412 1.887 17.494 0 14.759-2.25 29.035-6.75 42.827-.388 1.258-.835 2.323-1.343 3.194s-1.392 1.44-2.65 1.706-2.734.52-4.428.762c-1.693.242-3.363.46-5.008.653-3.581.339-6.049.508-7.404.508s-2.807-.012-4.356-.036c-1.548-.024-3.242-.085-5.081-.181-4.839-.242-8.105-.666-9.799-1.271s-2.843-1.633-3.448-3.085-1.198-3.774-1.779-6.968c-1.355-7.453-2.032-15.946-2.032-25.479 0-3.629.097-7.234.29-10.816l16.478-3.266z" transform="matrix(1.17967 -.28831 .28831 1.17967 -157.1561 -42.6341)"/><path d="m323.982 228.559s5.178-.315 15.534-.944c4.791-.29 9.606-.774 14.445-1.452l.508-9.146-25.478-10.017c-1.501-.581-2.638-1.706-3.412-3.375-.774-1.67-1.161-2.988-1.161-3.956s.012-1.585.036-1.851.085-.908.181-1.924l1.597-13.719c.484-3.872 2.444-6.557 5.88-8.057 2.129-.968 4.815-1.839 8.057-2.614 6.63-1.548 11.276-2.589 13.937-3.121l7.041-1.524c2.033-.387 3.848-.726 5.444-1.017l3.34 16.623-28.31 4.21-1.161 6.969 26.785 12.485c3.242 1.5 4.621 4.38 4.137 8.638l-1.96 17.494c-.435 3.726-3.46 6.218-9.073 7.477-6.001 1.645-12.643 2.867-19.926 3.665-7.283.799-12.086 1.246-14.408 1.343z" transform="matrix(1.4564 .238411 -.238411 1.4564 -187.5145 -163.0101)"/><path d="m386.336 191.829c0-6.484.677-10.235 2.032-11.251s2.879-2.045 4.573-3.085c1.694-1.041 3.557-2.069 5.589-3.085 2.033-1.016 4.15-1.984 6.352-2.904 2.202-.919 4.367-1.742 6.497-2.468 4.548-1.548 7.948-2.322 10.198-2.322s4.077.108 5.481.326c1.403.218 2.685.569 3.847 1.053 2.661 1.113 4.162 2.734 4.5 4.863 1.597 10.114 2.396 22.164 2.396 36.149v4.283l-34.77.435v9.437c3.774.919 8.275 1.766 13.501 2.541l12.486 2.032c3.193.484 6.46 1.04 9.799 1.67l-4.283 15.896c-13.308-2.08-27.438-5.444-42.391-10.089-3.436-1.113-5.203-3.122-5.299-6.025zm35.132 5.952c0-4.548-.459-9.339-1.379-14.372-1.936 0-3.484.097-4.646.29-1.161.194-2.322.46-3.484.799-1.161.338-2.347.726-3.557 1.161-2.855 1.016-4.742 1.887-5.661 2.613v13.066l18.727-2.032z" transform="matrix(1.02593 .64978 -.64978 1.02593 28.613 -164.4469)"/><g transform="matrix(2.88646 0 0 2.88646 -555.714 -591.336)"><path d="m218.729 373.663 1.524-.145c1.597-.242 3.23-.472 4.9-.69 1.669-.217 3.399-.496 5.19-.834 4.307-.726 7.719-1.5 10.235-2.323 3.194-13.211 4.791-27.051 4.791-41.521 0-5.42-.266-10.114-.799-14.082-13.162-2.468-29.858-3.702-50.086-3.702h-1.96l3.267-17.566h1.524c18.389 0 34.383 1.476 47.981 4.428 2.613.532 4.561 1.04 5.844 1.524 1.282.484 2.552 1.307 3.81 2.468 1.259 1.161 2.493 2.444 3.702 3.847 2.807 3.436 4.307 6.049 4.501 7.84.387 3.581.581 7.597.581 12.049s-.194 9.146-.581 14.083c-.387 4.936-.968 9.799-1.742 14.59-1.597 10.404-3.751 18.921-6.461 25.551-.58 1.5-1.221 2.577-1.923 3.23s-2.117 1.331-4.247 2.033c-2.129.701-4.754 1.367-7.875 1.996-3.122.629-6.594 1.161-10.417 1.597-7.114.822-16.598 1.524-28.455 2.105v-69.54l17.857-3.847.291 15.606z"/><path d="m297.045 353.905c0 11.662 1.991 13.733 3.201 22.299l14.3-.726c2.613-10.356 3.919-20.47 3.919-30.342 0-3.968-1.313-15.545-1.845-18.642-.866-5.04 8.679-17.355 18.926-28.973l14.713 10.221c-1.86 2.429-14.728 16.379-14.859 20.309-.089 2.692.341 5.301.341 13.383 0 14.76-2.25 29.035-6.75 42.827-.388 1.258-.835 2.323-1.343 3.194s-1.392 1.44-2.65 1.706-2.734.52-4.428.762c-1.693.242-3.363.46-5.008.653-3.581.339-6.049.508-7.404.508s-2.807-.012-4.356-.036c-1.548-.024-3.242-.085-5.081-.181-4.839-.242-8.105-.666-9.799-1.271s-2.843-1.633-3.448-3.085c-.605-1.451-1.198-3.774-1.779-6.968-1.355-7.453-3.418-15.945-3.418-25.479 0-3.629.256-10.399.449-13.98l37.715-4.531v14.344z"/><path d="m350.259 377.22s5.178-.315 15.534-.944c4.791-.29 9.606-.774 14.445-1.451l.508-9.147-25.478-10.017c-1.501-.58-2.638-1.706-3.412-3.375-.774-1.67-1.161-2.988-1.161-3.956s.012-1.585.036-1.851.085-.908.181-1.924l1.597-13.719c.484-3.871 2.444-6.557 5.88-8.057 2.129-.968 4.815-1.839 8.057-2.613 6.63-1.549 11.276-2.589 13.937-3.122l7.041-1.524c2.033-.387 3.848-.726 5.444-1.016l3.34 16.622-28.31 4.21-1.161 6.969 26.785 12.485c3.242 1.5 4.621 4.38 4.137 8.638l-1.96 17.494c-.435 3.726-3.46 6.218-9.073 7.477-6.001 1.645-12.643 2.867-19.926 3.665-7.283.799-12.086 1.246-14.408 1.343z"/><path d="m412.613 340.49c0-6.484.677-10.235 2.032-11.251s2.879-2.045 4.573-3.085 3.557-2.069 5.589-3.085c2.033-1.016 4.15-1.984 6.352-2.903 2.202-.92 4.367-1.743 6.497-2.468 4.548-1.549 7.948-2.323 10.198-2.323s4.077.109 5.481.326c1.403.218 2.685.569 3.847 1.053 2.661 1.113 4.162 2.734 4.5 4.863 1.597 10.114 2.396 22.164 2.396 36.149v4.283l-34.77.436v9.436c3.774.92 8.275 1.766 13.501 2.541l12.486 2.032c3.193.484 6.46 1.041 9.799 1.67l-4.283 15.897c-13.308-2.081-27.438-5.445-42.391-10.09-3.436-1.113-5.203-3.122-5.299-6.025zm35.132 5.953c0-4.549-.459-9.34-1.379-14.373-1.936 0-3.484.097-4.645.29-1.162.194-2.323.46-3.485.799-1.161.339-2.347.726-3.557 1.161-2.855 1.016-4.742 1.888-5.661 2.613v13.066l18.727-2.032z"/></g><g transform="matrix(.791288 0 0 .791288 116.554 -9.129)"><path d="m-111.05 853.162 9.564-45.105h3.023l16.352 40.046h.123c.185-1.07.391-2.227.617-3.471s.463-2.504.71-3.779c.247-1.276.493-2.479.74-3.61l6.232-29.186h3.024l-9.533 45.105h-3.055l-16.382-40.045h-.123c-.144.823-.299 1.681-.463 2.576-.165.895-.334 1.81-.509 2.746s-.355 1.882-.54 2.838c-.185.957-.37 1.918-.555 2.885l-6.14 29z"/><path d="m-57.152 853.779c-1.934 0-3.589-.473-4.967-1.419s-2.427-2.298-3.147-4.057c-.72-1.758-1.08-3.851-1.08-6.278 0-2.242.242-4.463.725-6.664s1.193-4.283 2.129-6.247c.936-1.965 2.082-3.708 3.44-5.23 1.357-1.522 2.92-2.72 4.689-3.594s3.713-1.311 5.831-1.311c1.789 0 3.281.375 4.474 1.126 1.192.751 2.128 1.692 2.807 2.823s1.172 2.273 1.481 3.424h.216l1.789-6.725h2.468l-7.095 33.535h-2.53l1.388-7.836h-.154c-.802 1.255-1.826 2.535-3.07 3.841s-2.664 2.401-4.258 3.286c-1.594.884-3.306 1.326-5.136 1.326zm.833-2.715c1.769 0 3.563-.642 5.383-1.928 1.821-1.285 3.451-3.034 4.89-5.245 1.44-2.211 2.468-4.704 3.085-7.481.288-1.255.489-2.365.602-3.332s.17-1.861.17-2.684c0-2.715-.638-4.839-1.913-6.371s-3.024-2.298-5.245-2.298c-1.728 0-3.311.38-4.751 1.141s-2.715 1.81-3.826 3.147c-1.11 1.337-2.051 2.869-2.823 4.597-.771 1.728-1.362 3.568-1.773 5.522-.412 1.954-.618 3.929-.618 5.924 0 2.838.576 5.049 1.728 6.633s2.849 2.375 5.091 2.375z"/><path d="m-23.617 853.779c-2.139 0-3.805-.524-4.998-1.573-1.192-1.049-1.789-2.653-1.789-4.813 0-.576.041-1.203.123-1.882.083-.679.206-1.378.371-2.098l4.473-21.226h-4.998l.401-1.82 5.183-1.018 2.777-7.805h2.067l-1.728 8.083h9.626l-.555 2.56h-9.626l-4.473 21.134c-.144.658-.263 1.306-.355 1.943-.093.638-.139 1.234-.139 1.79 0 1.234.308 2.216.925 2.946s1.646 1.095 3.086 1.095c.925 0 1.763-.072 2.514-.216s1.486-.339 2.206-.586v2.561c-.617.226-1.363.437-2.237.632-.874.196-1.825.293-2.854.293z"/><path d="m-.972 853.779c-1.768 0-3.29-.313-4.566-.941-1.275-.627-2.247-1.558-2.915-2.792s-1.003-2.745-1.003-4.535c0-.72.057-1.47.17-2.252s.242-1.584.386-2.406l4.504-21.226h3.147l-4.597 21.596c-.165.781-.288 1.496-.37 2.144-.083.648-.124 1.239-.124 1.774 0 1.995.525 3.481 1.574 4.458s2.571 1.465 4.566 1.465 3.954-.632 5.877-1.897 3.62-3.034 5.091-5.306c1.47-2.273 2.524-4.932 3.162-7.976l3.455-16.258h3.085l-7.126 33.535h-2.592l1.388-7.836h-.185c-.74 1.214-1.722 2.473-2.946 3.779s-2.664 2.412-4.319 3.317c-1.656.905-3.543 1.357-5.662 1.357z"/><path d="m25.407 853.162 7.095-33.535h2.592l-1.357 7.805h.185c.74-1.193 1.666-2.437 2.776-3.733 1.111-1.296 2.402-2.396 3.872-3.301 1.471-.905 3.121-1.358 4.952-1.358.658 0 1.306.047 1.944.139.637.093 1.223.221 1.758.386l-.679 2.807c-.473-.123-.982-.226-1.527-.308s-1.136-.123-1.774-.123c-1.501 0-2.962.401-4.381 1.203s-2.725 1.902-3.918 3.301c-1.193 1.398-2.216 2.987-3.07 4.766-.853 1.78-1.496 3.656-1.928 5.631l-3.424 16.32z"/><path d="m63.632 868.002 10.242-48.375h2.592l-1.388 7.836h.185c.864-1.399 1.918-2.741 3.162-4.026 1.244-1.286 2.669-2.345 4.273-3.178s3.383-1.249 5.337-1.249c1.975 0 3.677.468 5.106 1.403 1.43.936 2.54 2.283 3.332 4.042.792 1.758 1.188 3.862 1.188 6.309 0 2.221-.236 4.427-.71 6.618-.473 2.19-1.162 4.268-2.067 6.232s-2.046 3.712-3.424 5.245c-1.378 1.532-2.967 2.735-4.767 3.609-1.799.874-3.82 1.311-6.062 1.311-1.892 0-3.476-.354-4.751-1.064s-2.288-1.625-3.039-2.746-1.291-2.298-1.62-3.532h-.185c-.144 1.131-.339 2.386-.586 3.764s-.494 2.632-.74 3.763l-2.993 14.038zm16.906-16.938c1.81 0 3.446-.385 4.906-1.156 1.46-.772 2.751-1.831 3.872-3.178s2.062-2.895 2.823-4.643c.761-1.749 1.337-3.589 1.727-5.523.391-1.933.587-3.887.587-5.862 0-2.838-.628-5.044-1.882-6.617-1.255-1.574-3.065-2.36-5.43-2.36-1.255 0-2.484.262-3.687.786-1.203.525-2.345 1.265-3.425 2.222-1.079.956-2.072 2.082-2.977 3.378s-1.686 2.71-2.345 4.242c-.658 1.532-1.172 3.152-1.542 4.859s-.555 3.435-.555 5.183c0 2.818.709 4.967 2.128 6.448 1.42 1.481 3.353 2.221 5.8 2.221z"/><path d="m113.303 853.779c-1.769 0-3.291-.313-4.566-.941-1.275-.627-2.247-1.558-2.916-2.792-.668-1.234-1.002-2.745-1.002-4.535 0-.72.056-1.47.169-2.252s.242-1.584.386-2.406l4.504-21.226h3.147l-4.597 21.596c-.164.781-.288 1.496-.37 2.144s-.123 1.239-.123 1.774c0 1.995.524 3.481 1.573 4.458s2.571 1.465 4.566 1.465 3.954-.632 5.877-1.897 3.62-3.034 5.091-5.306c1.47-2.273 2.525-4.932 3.162-7.976l3.456-16.258h3.085l-7.127 33.535h-2.592l1.389-7.836h-.185c-.741 1.214-1.723 2.473-2.947 3.779-1.223 1.306-2.663 2.412-4.319 3.317s-3.543 1.357-5.661 1.357z"/><path d="m139.681 853.162 7.096-33.535h2.591l-1.357 7.805h.185c.74-1.193 1.666-2.437 2.777-3.733 1.11-1.296 2.401-2.396 3.872-3.301 1.47-.905 3.121-1.358 4.951-1.358.658 0 1.306.047 1.944.139.637.093 1.224.221 1.758.386l-.678 2.807c-.473-.123-.982-.226-1.527-.308-.546-.082-1.137-.123-1.774-.123-1.502 0-2.962.401-4.381 1.203-1.42.802-2.726 1.902-3.919 3.301-1.192 1.398-2.216 2.987-3.069 4.766-.854 1.78-1.497 3.656-1.928 5.631l-3.425 16.32z"/><path d="m159.92 861.307c.925-1.892 1.774-3.728 2.545-5.507s1.486-3.501 2.144-5.167 1.255-3.271 1.789-4.813h3.332l.124.74c-.617 1.543-1.327 3.168-2.129 4.875s-1.661 3.409-2.576 5.106c-.915 1.696-1.836 3.285-2.761 4.766z"/><path d="m196.726 853.162 7.095-33.535h2.592l-1.357 7.805h.185c.74-1.193 1.666-2.437 2.776-3.733 1.111-1.296 2.402-2.396 3.872-3.301 1.471-.905 3.121-1.358 4.952-1.358.658 0 1.306.047 1.944.139.637.093 1.223.221 1.758.386l-.679 2.807c-.473-.123-.982-.226-1.527-.308s-1.136-.123-1.774-.123c-1.501 0-2.962.401-4.381 1.203s-2.725 1.902-3.918 3.301c-1.193 1.398-2.216 2.987-3.07 4.766-.853 1.78-1.496 3.656-1.928 5.631l-3.424 16.32z"/><path d="m235.198 853.779c-2.201 0-4.201-.462-6.001-1.388-1.8-.925-3.229-2.334-4.288-4.227-1.06-1.892-1.589-4.288-1.589-7.188 0-2.941.421-5.728 1.265-8.361.843-2.632 2.026-4.972 3.548-7.019 1.522-2.046 3.321-3.661 5.399-4.843 2.077-1.183 4.36-1.774 6.849-1.774 2.673 0 4.766.679 6.278 2.036s2.268 3.167 2.268 5.43c0 1.913-.479 3.568-1.435 4.967s-2.34 2.55-4.15 3.455-3.969 1.584-6.478 2.037c-2.51.452-5.317.678-8.423.678h-1.728c-.061.412-.113.921-.154 1.527-.041.607-.062 1.199-.062 1.774 0 3.271.813 5.785 2.438 7.544 1.625 1.758 3.897 2.637 6.818 2.637 1.728 0 3.316-.231 4.766-.694 1.45-.462 2.793-.982 4.027-1.558v2.808c-1.173.596-2.551 1.105-4.135 1.527-1.583.422-3.321.632-5.213.632zm-8.022-18.881h2.067c3.147 0 5.97-.283 8.469-.848 2.499-.566 4.479-1.455 5.939-2.669 1.46-1.213 2.19-2.787 2.19-4.72 0-1.44-.478-2.628-1.434-3.564-.957-.935-2.391-1.403-4.304-1.403-1.769 0-3.527.514-5.276 1.542-1.748 1.029-3.301 2.53-4.658 4.505-1.358 1.974-2.355 4.36-2.993 7.157z"/><path d="m260.99 868.341c-3.806 0-6.793-.74-8.963-2.221s-3.255-3.568-3.255-6.263c0-2.427.787-4.499 2.36-6.216 1.574-1.718 3.913-3.08 7.019-4.088-.74-.412-1.296-.952-1.666-1.62s-.555-1.404-.555-2.206c0-1.255.463-2.386 1.388-3.394.926-1.007 2.293-1.902 4.103-2.684-1.419-.781-2.499-1.912-3.239-3.393s-1.09-3.085-1.049-4.813c.041-1.995.422-3.79 1.142-5.384.719-1.594 1.717-2.946 2.992-4.057 1.111-.946 2.396-1.681 3.857-2.206 1.46-.524 3.064-.786 4.812-.786.72 0 1.425.056 2.114.169s1.342.273 1.959.479h11.322l-.524 2.344-7.559.309c.658.761 1.157 1.671 1.497 2.73.339 1.059.488 2.227.447 3.502-.041 1.871-.37 3.579-.987 5.121-.617 1.543-1.502 2.859-2.654 3.949-1.09 1.008-2.406 1.795-3.949 2.36-1.542.566-3.301.849-5.275.849-.494 0-.957-.026-1.388-.077-.432-.052-.833-.119-1.204-.201-1.789.555-3.064 1.28-3.825 2.175s-1.142 1.743-1.142 2.545c0 .782.268 1.42.802 1.913.371.309.859.566 1.466.771.607.206 1.352.34 2.237.402l3.763.339c2.366.226 4.335.673 5.909 1.342 1.573.668 2.756 1.568 3.547 2.699.792 1.132 1.188 2.489 1.188 4.073 0 2.139-.519 3.969-1.558 5.491-1.038 1.522-2.432 2.757-4.18 3.703-1.502.781-3.193 1.367-5.075 1.758s-3.841.586-5.877.586zm.308-2.468c1.933 0 3.677-.18 5.229-.54 1.553-.36 2.895-.869 4.027-1.527 1.357-.761 2.391-1.707 3.1-2.838.71-1.131 1.064-2.396 1.064-3.795 0-.761-.113-1.429-.339-2.005s-.566-1.08-1.018-1.512c-.72-.72-1.712-1.275-2.977-1.666s-2.792-.658-4.582-.802l-5.152-.463c-2.036.514-3.712 1.203-5.029 2.067-1.316.864-2.293 1.867-2.931 3.008-.637 1.142-.956 2.401-.956 3.779 0 2.119.854 3.698 2.561 4.736 1.707 1.039 4.041 1.558 7.003 1.558zm5.399-27.396c1.975 0 3.666-.432 5.075-1.296s2.504-2.057 3.286-3.579c.781-1.522 1.182-3.239 1.203-5.152.041-1.11-.087-2.103-.386-2.977-.298-.874-.745-1.609-1.342-2.206-.555-.596-1.249-1.054-2.082-1.373s-1.774-.478-2.823-.478c-1.46 0-2.777.252-3.949.756s-2.17 1.203-2.993 2.098c-.822.895-1.46 1.949-1.912 3.162-.453 1.214-.689 2.54-.71 3.98 0 .967.103 1.841.308 2.622.206.782.515 1.461.926 2.037 1.131 1.604 2.931 2.406 5.399 2.406z"/><path d="m285.948 853.162 7.096-33.535h3.116l-7.096 33.535zm10.583-40.847c-.617 0-1.116-.17-1.497-.509-.38-.34-.57-.828-.57-1.466 0-.514.097-1.007.293-1.481.195-.473.488-.858.879-1.156.391-.299.864-.448 1.419-.448.679 0 1.172.18 1.481.54.308.36.463.818.463 1.373 0 .843-.237 1.579-.71 2.206s-1.059.941-1.758.941z"/><path d="m315.165 853.718c-2.592 0-4.772-.535-6.541-1.605-1.768-1.069-3.1-2.571-3.995-4.504s-1.342-4.175-1.342-6.726c0-2.447.262-4.761.787-6.941.524-2.18 1.285-4.181 2.283-6.001.997-1.82 2.201-3.394 3.609-4.72 1.409-1.327 3.003-2.355 4.782-3.085 1.78-.73 3.697-1.096 5.754-1.096 2.551 0 4.7.546 6.448 1.636 1.749 1.09 3.08 2.596 3.996 4.519.915 1.923 1.372 4.15 1.372 6.68 0 2.262-.241 4.463-.725 6.602-.483 2.139-1.198 4.134-2.144 5.985s-2.113 3.466-3.501 4.844c-1.389 1.378-2.983 2.458-4.782 3.239-1.8.782-3.8 1.173-6.001 1.173zm.278-2.684c1.645 0 3.172-.314 4.581-.941 1.409-.628 2.674-1.517 3.795-2.669s2.077-2.53 2.869-4.134 1.393-3.394 1.805-5.368c.411-1.975.617-4.083.617-6.325 0-1.81-.309-3.46-.926-4.952-.617-1.491-1.558-2.679-2.823-3.563s-2.895-1.327-4.89-1.327c-1.645 0-3.177.299-4.596.895-1.42.597-2.71 1.46-3.872 2.592-1.162 1.131-2.155 2.488-2.978 4.072-.822 1.584-1.455 3.358-1.897 5.322s-.663 4.078-.663 6.34c0 3.106.756 5.558 2.267 7.358 1.512 1.8 3.749 2.7 6.711 2.7z"/><path d="m337.378 853.162 7.127-33.597h2.715l-1.358 7.805h.093c.74-1.234 1.717-2.499 2.931-3.794 1.213-1.296 2.658-2.396 4.334-3.301 1.677-.905 3.553-1.358 5.631-1.358 1.83 0 3.388.319 4.674.956 1.285.638 2.262 1.574 2.931 2.808.668 1.234 1.002 2.746 1.002 4.535 0 .761-.056 1.553-.169 2.376-.113.822-.252 1.614-.417 2.375l-4.504 21.195h-3.27l4.597-21.627c.164-.781.287-1.496.37-2.144.082-.648.123-1.239.123-1.774 0-1.974-.524-3.44-1.573-4.396-1.049-.957-2.54-1.435-4.474-1.435-1.995 0-3.944.628-5.846 1.882-1.903 1.255-3.584 3.013-5.044 5.276-1.461 2.262-2.51 4.905-3.147 7.929l-3.486 16.289z"/><path d="m384.273 853.779c-1.934 0-3.59-.473-4.968-1.419s-2.427-2.298-3.146-4.057c-.72-1.758-1.08-3.851-1.08-6.278 0-2.242.241-4.463.725-6.664.483-2.201 1.193-4.283 2.129-6.247.935-1.965 2.082-3.708 3.439-5.23 1.358-1.522 2.921-2.72 4.69-3.594s3.712-1.311 5.831-1.311c1.789 0 3.28.375 4.473 1.126s2.129 1.692 2.808 2.823 1.172 2.273 1.481 3.424h.216l1.789-6.725h2.468l-7.096 33.535h-2.529l1.388-7.836h-.154c-.803 1.255-1.826 2.535-3.07 3.841s-2.664 2.401-4.258 3.286c-1.594.884-3.306 1.326-5.136 1.326zm.833-2.715c1.768 0 3.563-.642 5.383-1.928 1.82-1.285 3.45-3.034 4.89-5.245s2.468-4.704 3.085-7.481c.288-1.255.489-2.365.602-3.332s.17-1.861.17-2.684c0-2.715-.638-4.839-1.913-6.371s-3.024-2.298-5.245-2.298c-1.728 0-3.311.38-4.751 1.141s-2.715 1.81-3.826 3.147c-1.11 1.337-2.051 2.869-2.823 4.597-.771 1.728-1.362 3.568-1.774 5.522-.411 1.954-.617 3.929-.617 5.924 0 2.838.576 5.049 1.728 6.633s2.849 2.375 5.091 2.375z"/><path d="m409.571 853.162 10.181-48.005h3.116l-10.181 48.005z"/><path d="m453.966 853.779c-3.29 0-6-.899-8.129-2.699s-3.193-4.355-3.193-7.667c0-2.591.555-4.797 1.666-6.617 1.11-1.821 2.663-3.41 4.658-4.767s4.34-2.643 7.035-3.856c-1.173-1.625-2.104-3.219-2.793-4.782-.689-1.564-1.033-3.178-1.033-4.844 0-2.16.473-4.078 1.419-5.754s2.288-3.003 4.026-3.98 3.8-1.465 6.186-1.465c1.769 0 3.337.36 4.705 1.08 1.368.719 2.442 1.712 3.224 2.977.781 1.265 1.172 2.73 1.172 4.396 0 2.304-.576 4.222-1.727 5.754-1.152 1.532-2.695 2.864-4.628 3.995-1.934 1.131-4.103 2.263-6.51 3.394l10.058 14.099c1.501-1.399 2.884-3.049 4.149-4.952 1.265-1.902 2.319-3.872 3.163-5.908h3.177c-.74 1.728-1.573 3.353-2.499 4.875-.925 1.522-1.918 2.962-2.977 4.319-1.059 1.358-2.175 2.643-3.347 3.856l5.707 7.929h-3.702l-4.165-5.985c-2.18 1.913-4.479 3.492-6.895 4.736-2.417 1.244-5.332 1.866-8.747 1.866zm.494-2.715c1.933 0 3.676-.252 5.229-.755 1.553-.504 3.003-1.209 4.35-2.114 1.348-.905 2.69-1.943 4.027-3.116l-10.644-14.901c-2.242 1.028-4.242 2.118-6.001 3.27-1.758 1.152-3.136 2.504-4.134 4.057s-1.496 3.45-1.496 5.692c0 1.666.385 3.085 1.157 4.258.771 1.172 1.82 2.067 3.146 2.684 1.327.617 2.782.925 4.366.925zm4.165-24.095c1.193-.555 2.437-1.157 3.733-1.804 1.296-.648 2.509-1.399 3.64-2.253 1.132-.853 2.052-1.851 2.762-2.992.709-1.142 1.064-2.463 1.064-3.965 0-1.769-.596-3.198-1.789-4.288s-2.695-1.635-4.505-1.635c-1.583 0-3.003.339-4.257 1.018-1.255.679-2.242 1.645-2.962 2.9s-1.08 2.777-1.08 4.566c0 1.44.283 2.828.849 4.165.565 1.337 1.414 2.766 2.545 4.288z"/><path d="m510.98 853.779c-1.769 0-3.291-.313-4.566-.941-1.275-.627-2.247-1.558-2.915-2.792-.669-1.234-1.003-2.745-1.003-4.535 0-.72.056-1.47.17-2.252.113-.782.241-1.584.385-2.406l4.505-21.226h3.146l-4.596 21.596c-.165.781-.288 1.496-.371 2.144-.082.648-.123 1.239-.123 1.774 0 1.995.524 3.481 1.573 4.458s2.571 1.465 4.566 1.465 3.955-.632 5.878-1.897 3.62-3.034 5.09-5.306c1.471-2.273 2.525-4.932 3.162-7.976l3.456-16.258h3.085l-7.127 33.535h-2.591l1.388-7.836h-.185c-.74 1.214-1.723 2.473-2.946 3.779-1.224 1.306-2.664 2.412-4.32 3.317-1.655.905-3.542 1.357-5.661 1.357z"/><path d="m537.266 853.162 7.126-33.597h2.715l-1.357 7.805h.092c.741-1.234 1.718-2.499 2.931-3.794 1.214-1.296 2.659-2.396 4.335-3.301s3.553-1.358 5.63-1.358c1.831 0 3.389.319 4.674.956 1.286.638 2.263 1.574 2.931 2.808.669 1.234 1.003 2.746 1.003 4.535 0 .761-.057 1.553-.17 2.376-.113.822-.252 1.614-.416 2.375l-4.505 21.195h-3.27l4.597-21.627c.165-.781.288-1.496.37-2.144.083-.648.124-1.239.124-1.774 0-1.974-.525-3.44-1.574-4.396-1.049-.957-2.54-1.435-4.473-1.435-1.995 0-3.944.628-5.847 1.882-1.902 1.255-3.583 3.013-5.044 5.276-1.46 2.262-2.509 4.905-3.147 7.929l-3.486 16.289z"/><path d="m579.625 853.162-4.72-33.535h3.147l3.023 22.429c.144.987.267 1.979.37 2.977.103.997.19 1.933.262 2.807.072.875.119 1.641.139 2.299h.155c.411-.802.843-1.661 1.295-2.576.453-.915.921-1.851 1.404-2.808.483-.956.972-1.877 1.465-2.761l12.619-22.367h3.363l-18.943 33.535z"/><path d="m616.369 853.779c-2.201 0-4.201-.462-6-1.388-1.8-.925-3.23-2.334-4.289-4.227-1.059-1.892-1.589-4.288-1.589-7.188 0-2.941.422-5.728 1.265-8.361.844-2.632 2.026-4.972 3.548-7.019 1.522-2.046 3.322-3.661 5.399-4.843 2.078-1.183 4.361-1.774 6.849-1.774 2.674 0 4.767.679 6.279 2.036 1.511 1.357 2.267 3.167 2.267 5.43 0 1.913-.478 3.568-1.434 4.967-.957 1.399-2.34 2.55-4.15 3.455s-3.97 1.584-6.479 2.037c-2.509.452-5.317.678-8.422.678h-1.728c-.062.412-.113.921-.154 1.527-.041.607-.062 1.199-.062 1.774 0 3.271.812 5.785 2.437 7.544 1.625 1.758 3.898 2.637 6.819 2.637 1.727 0 3.316-.231 4.766-.694 1.45-.462 2.792-.982 4.026-1.558v2.808c-1.172.596-2.55 1.105-4.134 1.527s-3.322.632-5.214.632zm-8.021-18.881h2.067c3.147 0 5.97-.283 8.469-.848 2.499-.566 4.478-1.455 5.939-2.669 1.46-1.213 2.19-2.787 2.19-4.72 0-1.44-.478-2.628-1.435-3.564-.956-.935-2.391-1.403-4.303-1.403-1.769 0-3.528.514-5.276 1.542-1.748 1.029-3.301 2.53-4.659 4.505-1.357 1.974-2.355 4.36-2.992 7.157z"/><path d="m634.325 853.162 7.096-33.535h2.591l-1.357 7.805h.185c.74-1.193 1.666-2.437 2.777-3.733 1.11-1.296 2.401-2.396 3.871-3.301 1.471-.905 3.122-1.358 4.952-1.358.658 0 1.306.047 1.944.139.637.093 1.224.221 1.758.386l-.678 2.807c-.473-.123-.983-.226-1.528-.308s-1.136-.123-1.774-.123c-1.501 0-2.961.401-4.38 1.203-1.42.802-2.726 1.902-3.919 3.301-1.193 1.398-2.216 2.987-3.069 4.766-.854 1.78-1.497 3.656-1.929 5.631l-3.424 16.32z"/><path d="m656.137 868.002 10.243-48.375h2.591l-1.388 7.836h.185c.864-1.399 1.918-2.741 3.162-4.026 1.245-1.286 2.669-2.345 4.273-3.178 1.605-.833 3.384-1.249 5.338-1.249 1.974 0 3.676.468 5.106 1.403 1.429.936 2.54 2.283 3.331 4.042.792 1.758 1.188 3.862 1.188 6.309 0 2.221-.236 4.427-.709 6.618-.473 2.19-1.162 4.268-2.067 6.232s-2.047 3.712-3.425 5.245c-1.378 1.532-2.967 2.735-4.766 3.609-1.8.874-3.821 1.311-6.063 1.311-1.892 0-3.476-.354-4.751-1.064s-2.288-1.625-3.039-2.746-1.29-2.298-1.62-3.532h-.185c-.144 1.131-.339 2.386-.586 3.764s-.493 2.632-.74 3.763l-2.993 14.038zm16.907-16.938c1.81 0 3.445-.385 4.905-1.156 1.46-.772 2.751-1.831 3.872-3.178s2.062-2.895 2.823-4.643c.761-1.749 1.337-3.589 1.728-5.523.39-1.933.586-3.887.586-5.862 0-2.838-.628-5.044-1.882-6.617-1.255-1.574-3.065-2.36-5.43-2.36-1.255 0-2.484.262-3.687.786-1.203.525-2.345 1.265-3.424 2.222-1.08.956-2.073 2.082-2.978 3.378s-1.686 2.71-2.344 4.242-1.173 3.152-1.543 4.859-.555 3.435-.555 5.183c0 2.818.709 4.967 2.129 6.448 1.419 1.481 3.352 2.221 5.8 2.221z"/><path d="m706.178 853.779c-1.933 0-3.589-.473-4.967-1.419s-2.427-2.298-3.147-4.057c-.72-1.758-1.08-3.851-1.08-6.278 0-2.242.242-4.463.725-6.664.484-2.201 1.193-4.283 2.129-6.247.936-1.965 2.083-3.708 3.44-5.23 1.358-1.522 2.921-2.72 4.69-3.594 1.768-.874 3.712-1.311 5.831-1.311 1.789 0 3.28.375 4.473 1.126s2.129 1.692 2.808 2.823c.678 1.131 1.172 2.273 1.48 3.424h.216l1.79-6.725h2.468l-7.096 33.535h-2.53l1.389-7.836h-.155c-.802 1.255-1.825 2.535-3.069 3.841-1.245 1.306-2.664 2.401-4.258 3.286-1.594.884-3.306 1.326-5.137 1.326zm.833-2.715c1.769 0 3.564-.642 5.384-1.928 1.82-1.285 3.45-3.034 4.89-5.245s2.468-4.704 3.085-7.481c.288-1.255.488-2.365.602-3.332.113-.967.169-1.861.169-2.684 0-2.715-.637-4.839-1.913-6.371-1.275-1.532-3.023-2.298-5.244-2.298-1.728 0-3.312.38-4.751 1.141-1.44.761-2.715 1.81-3.826 3.147s-2.052 2.869-2.823 4.597-1.363 3.568-1.774 5.522-.617 3.929-.617 5.924c0 2.838.576 5.049 1.728 6.633s2.848 2.375 5.09 2.375z"/><path d="m745.175 853.779c-2.571 0-4.772-.529-6.603-1.588-1.83-1.06-3.234-2.546-4.211-4.459-.977-1.912-1.465-4.154-1.465-6.725 0-2.345.252-4.607.756-6.788.504-2.18 1.249-4.195 2.236-6.046.988-1.852 2.196-3.461 3.625-4.829 1.43-1.367 3.075-2.437 4.937-3.208 1.861-.772 3.902-1.157 6.124-1.157 1.439 0 2.864.133 4.273.401 1.409.267 2.648.648 3.717 1.141l-.894 2.746c-.967-.473-2.083-.848-3.348-1.126s-2.514-.416-3.748-.416c-2.201 0-4.196.498-5.985 1.496-1.79.997-3.317 2.381-4.582 4.149-1.265 1.769-2.237 3.811-2.915 6.124-.679 2.314-1.019 4.788-1.019 7.42 0 1.954.355 3.697 1.065 5.23.709 1.532 1.764 2.735 3.162 3.609 1.399.874 3.106 1.311 5.122 1.311 1.501 0 2.9-.18 4.195-.539 1.296-.36 2.592-.839 3.888-1.435v2.807c-1.07.535-2.294.983-3.672 1.342-1.378.36-2.931.54-4.658.54z"/><path d="m760.107 853.162 10.15-48.005h3.147l-4.69 21.997c-.349 1.708-.689 3.235-1.018 4.582s-.632 2.571-.91 3.671c-.277 1.101-.55 2.144-.817 3.132h.092l19.622-18.912h3.795l-15.149 14.531 9.41 19.004h-3.455l-8.268-17.03-6.418 5.646-2.344 11.384z"/><path d="m799.227 853.779c-2.139 0-3.805-.524-4.998-1.573s-1.79-2.653-1.79-4.813c0-.576.042-1.203.124-1.882s.205-1.378.37-2.098l4.473-21.226h-4.997l.401-1.82 5.183-1.018 2.776-7.805h2.067l-1.727 8.083h9.625l-.555 2.56h-9.626l-4.473 21.134c-.144.658-.262 1.306-.355 1.943-.092.638-.139 1.234-.139 1.79 0 1.234.309 2.216.926 2.946s1.645 1.095 3.085 1.095c.925 0 1.764-.072 2.514-.216.751-.144 1.486-.339 2.206-.586v2.561c-.617.226-1.362.437-2.237.632-.874.196-1.825.293-2.853.293z"/></g></g></svg>